<svg xmlns="http://www.w3.org/2000/svg" width="1005" height="600"><rect width="1005" height="600" x="0" y="0" fill="#FFFFFF" id="backgorund"/><g id="viz"><g transform="translate(0,0)"><g transform="translate(40,20)"><g class="bars"><rect id="undefined - 2011" x="134.057734204793" y="378" height="182" width="57.15958605664488" fill="#4a4a4a"/><rect id="undefined - 2020" x="191.2173202614379" y="392" height="168" width="57.15958605664488" fill="#f8e71c"/><rect id="undefined - 2011" x="9.86928104575162" y="280" height="280" width="57.15958605664488" fill="#4a4a4a"/><rect id="undefined - 2020" x="67.0288671023965" y="266.00000000000006" height="293.99999999999994" width="57.15958605664488" fill="#f8e71c"/><rect id="undefined - 2011" x="258.24618736383445" y="259" height="301" width="57.15958605664488" fill="#4a4a4a"/><rect id="undefined - 2020" x="315.40577342047936" y="371" height="189" width="57.15958605664488" fill="#f8e71c"/><rect id="undefined - 2011" x="382.43464052287584" y="462" height="98" width="57.15958605664488" fill="#4a4a4a"/><rect id="undefined - 2020" x="439.59422657952075" y="427" height="133" width="57.15958605664488" fill="#f8e71c"/><rect id="undefined - 2011" x="506.6230936819172" y="399" height="161" width="57.15958605664488" fill="#4a4a4a"/><rect id="undefined - 2020" x="563.7826797385621" y="462" height="98" width="57.15958605664488" fill="#f8e71c"/><rect id="undefined - 2011" x="630.8115468409587" y="63.00000000000003" height="497" width="57.15958605664488" fill="#4a4a4a"/><rect id="undefined - 2020" x="687.9711328976036" y="90.99999999999999" height="469" width="57.15958605664488" fill="#f8e71c"/></g><g id="xAxis" transform="translate(0,560)" fill="none" font-size="10" font-family="sans-serif" text-anchor="middle"><path class="domain" stroke="currentColor" d="M0.5,0.5H755.5"/><g class="tick" opacity="1" transform="translate(67.0288671023965,0)"><line stroke="currentColor" y2="6"/><text fill="currentColor" y="9" dy="0.71em">Ambiente de Negocios</text></g><g class="tick" opacity="1" transform="translate(191.2173202614379,0)"><line stroke="currentColor" y2="6"/><text fill="currentColor" y="9" dy="0.71em">Condiciones Laborales</text></g><g class="tick" opacity="1" transform="translate(315.40577342047936,0)"><line stroke="currentColor" y2="6"/><text fill="currentColor" y="9" dy="0.71em">Condiciones Socio-Culturales</text></g><g class="tick" opacity="1" transform="translate(439.59422657952075,0)"><line stroke="currentColor" y2="6"/><text fill="currentColor" y="9" dy="0.71em">Conectividad y Movilidad</text></g><g class="tick" opacity="1" transform="translate(563.7826797385621,0)"><line stroke="currentColor" y2="6"/><text fill="currentColor" y="9" dy="0.71em">Salud y Medio Ambiente</text></g><g class="tick" opacity="1" transform="translate(687.9711328976036,0)"><line stroke="currentColor" y2="6"/><text fill="currentColor" y="9" dy="0.71em">Vivienda y Entorno</text></g></g><g id="yAxis" fill="none" font-size="10" font-family="sans-serif" text-anchor="end"><path class="domain" stroke="currentColor" d="M0.5,560.5V0.5"/><g class="tick" opacity="1" transform="translate(0,560.5)"><line stroke="currentColor" x2="-6"/><text fill="currentColor" x="-9" dy="0.32em">0.0</text></g><g class="tick" opacity="1" transform="translate(0,490.5)"><line stroke="currentColor" x2="-6"/><text fill="currentColor" x="-9" dy="0.32em">0.1</text></g><g class="tick" opacity="1" transform="translate(0,420.5)"><line stroke="currentColor" x2="-6"/><text fill="currentColor" x="-9" dy="0.32em">0.2</text></g><g class="tick" opacity="1" transform="translate(0,350.5)"><line stroke="currentColor" x2="-6"/><text fill="currentColor" x="-9" dy="0.32em">0.3</text></g><g class="tick" opacity="1" transform="translate(0,280.5)"><line stroke="currentColor" x2="-6"/><text fill="currentColor" x="-9" dy="0.32em">0.4</text></g><g class="tick" opacity="1" transform="translate(0,210.5)"><line stroke="currentColor" x2="-6"/><text fill="currentColor" x="-9" dy="0.32em">0.5</text></g><g class="tick" opacity="1" transform="translate(0,140.50000000000006)"><line stroke="currentColor" x2="-6"/><text fill="currentColor" x="-9" dy="0.32em">0.6</text></g><g class="tick" opacity="1" transform="translate(0,70.50000000000006)"><line stroke="currentColor" x2="-6"/><text fill="currentColor" x="-9" dy="0.32em">0.7</text></g><g class="tick" opacity="1" transform="translate(0,0.5)"><line stroke="currentColor" x2="-6"/><text fill="currentColor" x="-9" dy="0.32em">0.8</text></g></g><text y="556" x="755" text-anchor="end" style="font-family: Arial, sans-serif; font-size: 12px; fill: rgb(123, 123, 123); font-weight: bold;">Sets</text><text y="0" x="4" dominant-baseline="hanging" text-anchor="start" style="font-family: Arial, sans-serif; font-size: 12px; fill: rgb(123, 123, 123); font-weight: bold;">Value</text></g><text x="4" y="4" style="font-family: Arial, sans-serif; font-size: 12px; fill: black; font-weight: bold; dominant-baseline: hanging;"/></g><g id="grid"><rect x="0" y="0" width="805" height="600" fill="none" stroke="#ccc"/></g></g><g id="legend" transform="translate(805,20)"><g transform="translate(5,0)"><g class="legendColor" transform="translate(0,0)"><g class="legendCells" transform="translate(0,16)"><g class="cell" transform="translate(0, 0)"><rect class="swatch" height="15" width="15" style="fill: rgb(74, 74, 74);"/><text class="label" transform="translate( 20, 12.5)" font-family="&quot;Arial&quot;, sans-serif" font-size="10px"><tspan x="0" dy="0em">2011</tspan></text></g><g class="cell" transform="translate(0, 21)"><rect class="swatch" height="15" width="15" style="fill: rgb(248, 231, 28);"/><text class="label" transform="translate( 20, 12.5)" font-family="&quot;Arial&quot;, sans-serif" font-size="10px"><tspan x="0" dy="0em">2020</tspan></text></g></g><text class="legendTitle" font-family="&quot;Arial&quot;, sans-serif" font-size="12px" font-weight="bold"><tspan x="0" dy="0em">Colors</tspan></text></g></g></g></svg>