<svg xmlns="http://www.w3.org/2000/svg" width="805" height="600"><rect width="805" height="600" x="0" y="0" fill="#FFFFFF" id="backgorund"/><g id="viz"><g transform="translate(0,0)"><g transform="translate(40,20)"><g class="bars"><rect id="undefined - 2011" x="130.1409158012221" y="378" height="182" width="59.10790605222925" fill="#1f77b4"/><rect id="undefined - 2020" x="190.2406379620955" y="392" height="168" width="59.10790605222925" fill="#ff7f0e"/><rect id="undefined - 2011" x="4.970735739737691" y="280" height="280" width="59.10790605222925" fill="#1f77b4"/><rect id="undefined - 2020" x="65.07045790061106" y="266.00000000000006" height="293.99999999999994" width="59.10790605222925" fill="#ff7f0e"/><rect id="undefined - 2011" x="255.3110958627065" y="259" height="301" width="59.10790605222925" fill="#1f77b4"/><rect id="undefined - 2020" x="315.4108180235799" y="371" height="189" width="59.10790605222925" fill="#ff7f0e"/><rect id="undefined - 2011" x="380.4812759241909" y="462" height="98" width="59.10790605222925" fill="#1f77b4"/><rect id="undefined - 2020" x="440.5809980850643" y="427" height="133" width="59.10790605222925" fill="#ff7f0e"/><rect id="undefined - 2011" x="505.65145598567534" y="399" height="161" width="59.10790605222925" fill="#1f77b4"/><rect id="undefined - 2020" x="565.7511781465487" y="462" height="98" width="59.10790605222925" fill="#ff7f0e"/><rect id="undefined - 2011" x="630.8216360471597" y="63.00000000000003" height="497" width="59.10790605222925" fill="#1f77b4"/><rect id="undefined - 2020" x="690.9213582080331" y="90.99999999999999" height="469" width="59.10790605222925" fill="#ff7f0e"/></g><g id="xAxis" transform="translate(0,560)" fill="none" font-size="10" font-family="sans-serif" text-anchor="middle"><path class="domain" stroke="currentColor" d="M0.5,0.5H755.5"/><g class="tick" opacity="1" transform="translate(64.57454984628899,0)"><line stroke="currentColor" y2="6"/><text fill="currentColor" y="9" dy="0.71em">Ambiente de Negocios</text></g><g class="tick" opacity="1" transform="translate(189.7447299077734,0)"><line stroke="currentColor" y2="6"/><text fill="currentColor" y="9" dy="0.71em">Condiciones Laborales</text></g><g class="tick" opacity="1" transform="translate(314.91490996925785,0)"><line stroke="currentColor" y2="6"/><text fill="currentColor" y="9" dy="0.71em">Condiciones Socio-Culturales</text></g><g class="tick" opacity="1" transform="translate(440.08509003074226,0)"><line stroke="currentColor" y2="6"/><text fill="currentColor" y="9" dy="0.71em">Conectividad y Movilidad</text></g><g class="tick" opacity="1" transform="translate(565.2552700922266,0)"><line stroke="currentColor" y2="6"/><text fill="currentColor" y="9" dy="0.71em">Salud y Medio Ambiente</text></g><g class="tick" opacity="1" transform="translate(690.425450153711,0)"><line stroke="currentColor" y2="6"/><text fill="currentColor" y="9" dy="0.71em">Vivienda y Entorno</text></g></g><g id="yAxis" fill="none" font-size="10" font-family="sans-serif" text-anchor="end"><path class="domain" stroke="currentColor" d="M0.5,560.5V0.5"/><g class="tick" opacity="1" transform="translate(0,560.5)"><line stroke="currentColor" x2="-6"/><text fill="currentColor" x="-9" dy="0.32em">0.0</text></g><g class="tick" opacity="1" transform="translate(0,490.5)"><line stroke="currentColor" x2="-6"/><text fill="currentColor" x="-9" dy="0.32em">0.1</text></g><g class="tick" opacity="1" transform="translate(0,420.5)"><line stroke="currentColor" x2="-6"/><text fill="currentColor" x="-9" dy="0.32em">0.2</text></g><g class="tick" opacity="1" transform="translate(0,350.5)"><line stroke="currentColor" x2="-6"/><text fill="currentColor" x="-9" dy="0.32em">0.3</text></g><g class="tick" opacity="1" transform="translate(0,280.5)"><line stroke="currentColor" x2="-6"/><text fill="currentColor" x="-9" dy="0.32em">0.4</text></g><g class="tick" opacity="1" transform="translate(0,210.5)"><line stroke="currentColor" x2="-6"/><text fill="currentColor" x="-9" dy="0.32em">0.5</text></g><g class="tick" opacity="1" transform="translate(0,140.50000000000006)"><line stroke="currentColor" x2="-6"/><text fill="currentColor" x="-9" dy="0.32em">0.6</text></g><g class="tick" opacity="1" transform="translate(0,70.50000000000006)"><line stroke="currentColor" x2="-6"/><text fill="currentColor" x="-9" dy="0.32em">0.7</text></g><g class="tick" opacity="1" transform="translate(0,0.5)"><line stroke="currentColor" x2="-6"/><text fill="currentColor" x="-9" dy="0.32em">0.8</text></g></g><text y="556" x="755" text-anchor="end" style="font-family: Arial, sans-serif; font-size: 12px; fill: rgb(123, 123, 123); font-weight: bold;">Sets</text><text y="0" x="4" dominant-baseline="hanging" text-anchor="start" style="font-family: Arial, sans-serif; font-size: 12px; fill: rgb(123, 123, 123); font-weight: bold;">Value</text></g><text x="4" y="4" style="font-family: Arial, sans-serif; font-size: 12px; fill: black; font-weight: bold; dominant-baseline: hanging;"/></g><g id="grid"><rect x="0" y="0" width="805" height="600" fill="none" stroke="#ccc"/></g></g></svg>